<mxfile host="www.draw.io" modified="2019-11-22T20:57:56.212Z" agent="Mozilla/5.0 (Windows NT 10.0; Win64; x64) AppleWebKit/537.36 (KHTML, like Gecko) Chrome/78.0.3904.108 Safari/537.36" etag="RlOPaNwxLH6rUtl9Kyby" version="12.2.9" type="github" pages="4">
  <diagram id="AwbfEzpDd8xSR2dKTyjw" name="ph_vid_watch">
    <mxGraphModel dx="1248" dy="686" grid="1" gridSize="10" guides="1" tooltips="1" connect="1" arrows="1" fold="1" page="1" pageScale="1" pageWidth="850" pageHeight="1100" math="0" shadow="0">
      <root>
        <mxCell id="Jjdpp9kzdlKeJ8DKWI-i-0"/>
        <mxCell id="Jjdpp9kzdlKeJ8DKWI-i-1" parent="Jjdpp9kzdlKeJ8DKWI-i-0"/>
        <mxCell id="kKwHOPGvg4fn7I3pD740-0" value="ph_vid" style="shape=umlFrame;whiteSpace=wrap;html=1;width=60;height=20;" parent="Jjdpp9kzdlKeJ8DKWI-i-1" vertex="1">
          <mxGeometry x="20" y="90" width="730" height="450" as="geometry"/>
        </mxCell>
        <mxCell id="3LHcxx38Fz820UR3ZZb6-0" value="" style="html=1;points=[];perimeter=orthogonalPerimeter;" parent="Jjdpp9kzdlKeJ8DKWI-i-1" vertex="1">
          <mxGeometry x="650" y="100" width="10" height="80" as="geometry"/>
        </mxCell>
        <mxCell id="3LHcxx38Fz820UR3ZZb6-1" value="dispatch" style="html=1;verticalAlign=bottom;startArrow=oval;endArrow=block;startSize=8;" parent="Jjdpp9kzdlKeJ8DKWI-i-1" target="3LHcxx38Fz820UR3ZZb6-0" edge="1">
          <mxGeometry relative="1" as="geometry">
            <mxPoint x="490" y="110" as="sourcePoint"/>
            <Array as="points">
              <mxPoint x="550" y="110"/>
            </Array>
          </mxGeometry>
        </mxCell>
        <mxCell id="VnJPsCmSPEkNU2JOGeLp-0" value="Container" style="swimlane;" parent="Jjdpp9kzdlKeJ8DKWI-i-1" vertex="1">
          <mxGeometry x="350" y="370" width="380" height="150" as="geometry"/>
        </mxCell>
        <mxCell id="Ll8Ll0utZGQ6ejz3md0A-0" value=":Object" style="shape=umlLifeline;perimeter=lifelinePerimeter;whiteSpace=wrap;html=1;container=1;collapsible=0;recursiveResize=0;outlineConnect=0;size=80;" parent="Jjdpp9kzdlKeJ8DKWI-i-1" vertex="1">
          <mxGeometry x="40" y="180" width="130" height="210" as="geometry"/>
        </mxCell>
        <mxCell id="Ll8Ll0utZGQ6ejz3md0A-2" value="item: attribute" style="label;fontStyle=0;strokeColor=none;fillColor=none;align=left;verticalAlign=top;overflow=hidden;spacingLeft=28;spacingRight=4;rotatable=0;points=[[0,0.5],[1,0.5]];portConstraint=eastwest;imageWidth=16;imageHeight=16;image=img/clipart/Gear_128x128.png" parent="Ll8Ll0utZGQ6ejz3md0A-0" vertex="1">
          <mxGeometry x="5" y="10" width="120" height="26" as="geometry"/>
        </mxCell>
        <mxCell id="UbIw8AjE3OovaRkyUzxW-0" value="# of videos &amp;gt; 1" style="rhombus;whiteSpace=wrap;html=1;fillColor=#ffffc0;strokeColor=#ff0000;" parent="Jjdpp9kzdlKeJ8DKWI-i-1" vertex="1">
          <mxGeometry x="110" y="100" width="140" height="60" as="geometry"/>
        </mxCell>
        <mxCell id="UbIw8AjE3OovaRkyUzxW-1" value="no" style="edgeStyle=orthogonalEdgeStyle;html=1;align=left;verticalAlign=bottom;endArrow=open;endSize=8;strokeColor=#ff0000;" parent="Jjdpp9kzdlKeJ8DKWI-i-1" source="UbIw8AjE3OovaRkyUzxW-0" edge="1">
          <mxGeometry x="-1" relative="1" as="geometry">
            <mxPoint x="450" y="150" as="targetPoint"/>
            <Array as="points">
              <mxPoint x="450" y="130"/>
            </Array>
          </mxGeometry>
        </mxCell>
        <mxCell id="UbIw8AjE3OovaRkyUzxW-2" value="yes" style="edgeStyle=orthogonalEdgeStyle;html=1;align=left;verticalAlign=top;endArrow=open;endSize=8;strokeColor=#ff0000;" parent="Jjdpp9kzdlKeJ8DKWI-i-1" source="UbIw8AjE3OovaRkyUzxW-0" edge="1">
          <mxGeometry x="-1" relative="1" as="geometry">
            <mxPoint x="250" y="220" as="targetPoint"/>
            <Array as="points">
              <mxPoint x="250" y="190"/>
            </Array>
          </mxGeometry>
        </mxCell>
        <mxCell id="zff8t15oZqUy6pPYif88-0" value="BeautifulSoup" style="shape=component;align=left;spacingLeft=36;" parent="Jjdpp9kzdlKeJ8DKWI-i-1" vertex="1">
          <mxGeometry x="20" y="10" width="130" height="60" as="geometry"/>
        </mxCell>
        <mxCell id="zff8t15oZqUy6pPYif88-1" value="Selenium" style="shape=component;align=left;spacingLeft=36;" parent="Jjdpp9kzdlKeJ8DKWI-i-1" vertex="1">
          <mxGeometry x="170" y="10" width="120" height="60" as="geometry"/>
        </mxCell>
        <mxCell id="zff8t15oZqUy6pPYif88-2" value="http-request-randomizer" style="shape=component;align=left;spacingLeft=36;" parent="Jjdpp9kzdlKeJ8DKWI-i-1" vertex="1">
          <mxGeometry x="310" y="10" width="180" height="60" as="geometry"/>
        </mxCell>
        <mxCell id="zff8t15oZqUy6pPYif88-3" value="" style="ellipse;html=1;shape=startState;fillColor=#000000;strokeColor=#ff0000;" parent="Jjdpp9kzdlKeJ8DKWI-i-1" vertex="1">
          <mxGeometry x="40" y="115" width="30" height="30" as="geometry"/>
        </mxCell>
        <mxCell id="zff8t15oZqUy6pPYif88-4" value="" style="edgeStyle=orthogonalEdgeStyle;html=1;verticalAlign=bottom;endArrow=open;endSize=8;strokeColor=#ff0000;entryX=0;entryY=0.5;entryDx=0;entryDy=0;exitX=1;exitY=0.5;exitDx=0;exitDy=0;" parent="Jjdpp9kzdlKeJ8DKWI-i-1" source="zff8t15oZqUy6pPYif88-3" target="UbIw8AjE3OovaRkyUzxW-0" edge="1">
          <mxGeometry relative="1" as="geometry">
            <mxPoint x="130" y="140" as="targetPoint"/>
            <Array as="points">
              <mxPoint x="80" y="130"/>
              <mxPoint x="80" y="130"/>
            </Array>
          </mxGeometry>
        </mxCell>
        <mxCell id="XvHiz7TCJwS7BV2IcBN4-0" value="package" style="shape=folder;fontStyle=1;spacingTop=10;tabWidth=40;tabHeight=14;tabPosition=left;html=1;" vertex="1" parent="Jjdpp9kzdlKeJ8DKWI-i-1">
          <mxGeometry x="520" y="15" width="100" height="50" as="geometry"/>
        </mxCell>
      </root>
    </mxGraphModel>
  </diagram>
  <diagram id="hkwpgCsqC4L5V9U03aI8" name="ph_vid_comment">
    <mxGraphModel dx="1248" dy="686" grid="1" gridSize="10" guides="1" tooltips="1" connect="1" arrows="1" fold="1" page="1" pageScale="1" pageWidth="850" pageHeight="1100" math="0" shadow="0">
      <root>
        <mxCell id="DpqZAn3lfKTpve5m3jLl-0"/>
        <mxCell id="DpqZAn3lfKTpve5m3jLl-1" parent="DpqZAn3lfKTpve5m3jLl-0"/>
      </root>
    </mxGraphModel>
  </diagram>
  <diagram id="X8xxeZtMaUqWloNi_NUE" name="ph_datadownload">
    <mxGraphModel dx="1248" dy="686" grid="1" gridSize="10" guides="1" tooltips="1" connect="1" arrows="1" fold="1" page="1" pageScale="1" pageWidth="850" pageHeight="1100" math="0" shadow="0">
      <root>
        <mxCell id="l5QIk7LVCsUGL1zNA7kD-0"/>
        <mxCell id="l5QIk7LVCsUGL1zNA7kD-1" parent="l5QIk7LVCsUGL1zNA7kD-0"/>
        <mxCell id="l5QIk7LVCsUGL1zNA7kD-2" value="ph_datadownload" style="shape=umlFrame;whiteSpace=wrap;html=1;width=140;height=20;" parent="l5QIk7LVCsUGL1zNA7kD-1" vertex="1">
          <mxGeometry x="20" y="20" width="760" height="580" as="geometry"/>
        </mxCell>
        <mxCell id="1mIaOZ23cjCyIw2l2IKU-0" value="" style="ellipse;html=1;shape=startState;fillColor=#000000;strokeColor=#ff0000;" parent="l5QIk7LVCsUGL1zNA7kD-1" vertex="1">
          <mxGeometry x="70" y="50" width="30" height="30" as="geometry"/>
        </mxCell>
        <mxCell id="1mIaOZ23cjCyIw2l2IKU-1" value="" style="edgeStyle=orthogonalEdgeStyle;html=1;verticalAlign=bottom;endArrow=open;endSize=8;strokeColor=#ff0000;" parent="l5QIk7LVCsUGL1zNA7kD-1" source="1mIaOZ23cjCyIw2l2IKU-0" target="1mIaOZ23cjCyIw2l2IKU-2" edge="1">
          <mxGeometry relative="1" as="geometry">
            <mxPoint x="55" y="140" as="targetPoint"/>
          </mxGeometry>
        </mxCell>
        <mxCell id="1mIaOZ23cjCyIw2l2IKU-2" value="IDLE" style="html=1;" parent="l5QIk7LVCsUGL1zNA7kD-1" vertex="1">
          <mxGeometry x="30" y="120" width="110" height="50" as="geometry"/>
        </mxCell>
        <mxCell id="SqnLXMk6XBoaeApYODCm-5" value="BeautifulSoup" style="shape=component;align=left;spacingLeft=36;" parent="l5QIk7LVCsUGL1zNA7kD-1" vertex="1">
          <mxGeometry x="170" y="35" width="130" height="60" as="geometry"/>
        </mxCell>
        <mxCell id="SqnLXMk6XBoaeApYODCm-6" value="Selenium" style="shape=component;align=left;spacingLeft=36;" parent="l5QIk7LVCsUGL1zNA7kD-1" vertex="1">
          <mxGeometry x="330" y="35" width="120" height="60" as="geometry"/>
        </mxCell>
        <mxCell id="SqnLXMk6XBoaeApYODCm-7" value="http-request-randomizer" style="shape=component;align=left;spacingLeft=36;" parent="l5QIk7LVCsUGL1zNA7kD-1" vertex="1">
          <mxGeometry x="480" y="35" width="180" height="60" as="geometry"/>
        </mxCell>
      </root>
    </mxGraphModel>
  </diagram>
  <diagram id="OfdHNIP_iHX9oZ2ZFSQs" name="reddit_bot">
    <mxGraphModel dx="1248" dy="686" grid="1" gridSize="10" guides="1" tooltips="1" connect="1" arrows="1" fold="1" page="1" pageScale="1" pageWidth="850" pageHeight="1100" math="0" shadow="0">
      <root>
        <mxCell id="9OtKHRBxRGDBuByY-BPE-0"/>
        <mxCell id="9OtKHRBxRGDBuByY-BPE-1" parent="9OtKHRBxRGDBuByY-BPE-0"/>
      </root>
    </mxGraphModel>
  </diagram>
</mxfile>
